<?xml version="1.0" encoding="UTF-8"?>
<svg xmlns="http://www.w3.org/2000/svg" xmlns:xlink="http://www.w3.org/1999/xlink" width="156pt" height="96pt" viewBox="0 0 156 96" version="1.1">
<defs>
<linearGradient id="linear0" gradientUnits="userSpaceOnUse" x1="0" y1="0" x2="0" y2="96" >
<stop offset="0" style="stop-color:rgb(5.098039%,52.941176%,18.039216%);stop-opacity:0.6;"/>
<stop offset="0.25" style="stop-color:rgb(0%,52.941176%,18.039216%);stop-opacity:0.298039;"/>
<stop offset="1" style="stop-color:rgb(0%,52.941176%,18.039216%);stop-opacity:0;"/>
</linearGradient>
</defs>
<g id="surface20296">
<path style=" stroke:none;fill-rule:nonzero;fill:url(#linear0);" d="M 8 82.65625 C 8.164062 82.65625 11.160156 82.757812 11.253906 82.652344 C 11.488281 82.398438 14.289062 75.734375 14.511719 75.429688 C 14.613281 75.285156 17.640625 73.832031 17.765625 73.703125 C 17.964844 73.511719 20.816406 69.171875 21.023438 69.039062 C 21.140625 68.960938 24.148438 69.535156 24.277344 69.46875 C 24.472656 69.375 27.382812 65.800781 27.535156 65.820312 C 27.707031 65.839844 30.589844 70.191406 30.789062 70.292969 C 30.917969 70.359375 33.878906 69.125 34.046875 69.105469 C 34.203125 69.082031 37.15625 69.484375 37.300781 69.441406 C 37.480469 69.390625 40.382812 67.261719 40.558594 67.230469 C 40.710938 67.203125 43.65625 68.269531 43.8125 68.335938 C 43.980469 68.40625 46.921875 69.984375 47.070312 69.957031 C 47.25 69.917969 50.144531 67.082031 50.324219 66.960938 C 50.46875 66.867188 53.445312 65.828125 53.582031 65.726562 C 53.769531 65.585938 56.644531 62.242188 56.835938 62.121094 C 56.96875 62.035156 59.941406 61.570312 60.09375 61.605469 C 60.269531 61.648438 63.21875 63.546875 63.347656 63.6875 C 63.546875 63.898438 66.40625 68.578125 66.605469 68.667969 C 66.734375 68.722656 69.730469 66.710938 69.859375 66.574219 C 70.054688 66.371094 72.910156 61.964844 73.117188 61.847656 C 73.238281 61.777344 76.246094 62.898438 76.371094 62.835938 C 76.570312 62.738281 79.441406 58.835938 79.628906 58.652344 C 79.769531 58.511719 82.703125 56.367188 82.882812 56.300781 C 83.03125 56.25 85.992188 56.3125 86.140625 56.261719 C 86.320312 56.199219 89.242188 53.976562 89.394531 53.992188 C 89.566406 54.011719 92.464844 56.933594 92.652344 57.003906 C 92.789062 57.054688 95.757812 56.414062 95.90625 56.351562 C 96.082031 56.273438 98.988281 54.21875 99.164062 54.179688 C 99.3125 54.148438 102.285156 54.996094 102.417969 54.941406 C 102.609375 54.859375 105.554688 51.601562 105.675781 51.394531 C 105.878906 51.042969 108.726562 44.175781 108.929688 43.820312 C 109.050781 43.613281 112.050781 40.347656 112.1875 40.144531 C 112.378906 39.855469 115.308594 34.25 115.441406 33.925781 C 115.632812 33.457031 118.460938 24.714844 118.699219 24.289062 C 118.785156 24.128906 121.78125 22.289062 121.953125 22.257812 C 122.105469 22.226562 125.097656 22.941406 125.210938 23.050781 C 125.425781 23.261719 128.25 28.492188 128.464844 28.644531 C 128.578125 28.726562 131.609375 27.828125 131.722656 27.71875 C 131.933594 27.507812 134.816406 22.171875 134.976562 22.179688 C 135.144531 22.1875 138.03125 27.9375 138.234375 28.042969 C 138.355469 28.109375 141.3125 25.617188 141.488281 25.578125 C 141.636719 25.546875 144.582031 26.667969 144.746094 26.667969 C 144.90625 26.671875 147.835938 25.726562 148 25.679688 L 148 88 L 8 88 Z M 8 82.65625 "/>
<path style="fill:none;stroke-width:2;stroke-linecap:butt;stroke-linejoin:miter;stroke:rgb(4.705882%,49.411765%,16.470588%);stroke-opacity:1;stroke-miterlimit:10;" d="M 8 82.65625 C 8.164062 82.65625 11.160156 82.757812 11.253906 82.652344 C 11.488281 82.398438 14.289062 75.734375 14.511719 75.429688 C 14.613281 75.285156 17.640625 73.832031 17.765625 73.703125 C 17.964844 73.511719 20.816406 69.171875 21.023438 69.039062 C 21.140625 68.960938 24.148438 69.535156 24.277344 69.46875 C 24.472656 69.375 27.382812 65.800781 27.535156 65.820312 C 27.707031 65.839844 30.589844 70.191406 30.789062 70.292969 C 30.917969 70.359375 33.878906 69.125 34.046875 69.105469 C 34.203125 69.082031 37.15625 69.484375 37.300781 69.441406 C 37.480469 69.390625 40.382812 67.261719 40.558594 67.230469 C 40.710938 67.203125 43.65625 68.269531 43.8125 68.335938 C 43.980469 68.40625 46.921875 69.984375 47.070312 69.957031 C 47.25 69.917969 50.144531 67.082031 50.324219 66.960938 C 50.46875 66.867188 53.445312 65.828125 53.582031 65.726562 C 53.769531 65.585938 56.644531 62.242188 56.835938 62.121094 C 56.96875 62.035156 59.941406 61.570312 60.09375 61.605469 C 60.269531 61.648438 63.21875 63.546875 63.347656 63.6875 C 63.546875 63.898438 66.40625 68.578125 66.605469 68.667969 C 66.734375 68.722656 69.730469 66.710938 69.859375 66.574219 C 70.054688 66.371094 72.910156 61.964844 73.117188 61.847656 C 73.238281 61.777344 76.246094 62.898438 76.371094 62.835938 C 76.570312 62.738281 79.441406 58.835938 79.628906 58.652344 C 79.769531 58.511719 82.703125 56.367188 82.882812 56.300781 C 83.03125 56.25 85.992188 56.3125 86.140625 56.261719 C 86.320312 56.199219 89.242188 53.976562 89.394531 53.992188 C 89.566406 54.011719 92.464844 56.933594 92.652344 57.003906 C 92.789062 57.054688 95.757812 56.414062 95.90625 56.351562 C 96.082031 56.273438 98.988281 54.21875 99.164062 54.179688 C 99.3125 54.148438 102.285156 54.996094 102.417969 54.941406 C 102.609375 54.859375 105.554688 51.601562 105.675781 51.394531 C 105.878906 51.042969 108.726562 44.175781 108.929688 43.820312 C 109.050781 43.613281 112.050781 40.347656 112.1875 40.144531 C 112.378906 39.855469 115.308594 34.25 115.441406 33.925781 C 115.632812 33.457031 118.460938 24.714844 118.699219 24.289062 C 118.785156 24.128906 121.78125 22.289062 121.953125 22.257812 C 122.105469 22.226562 125.097656 22.941406 125.210938 23.050781 C 125.425781 23.261719 128.25 28.492188 128.464844 28.644531 C 128.578125 28.726562 131.609375 27.828125 131.722656 27.71875 C 131.933594 27.507812 134.816406 22.171875 134.976562 22.179688 C 135.144531 22.1875 138.03125 27.9375 138.234375 28.042969 C 138.355469 28.109375 141.3125 25.617188 141.488281 25.578125 C 141.636719 25.546875 144.582031 26.667969 144.746094 26.667969 C 144.90625 26.671875 147.835938 25.726562 148 25.679688 "/>
<path style="fill-rule:nonzero;fill:rgb(4.705882%,49.411765%,16.470588%);fill-opacity:1;stroke-width:2;stroke-linecap:butt;stroke-linejoin:miter;stroke:rgb(100%,100%,100%);stroke-opacity:1;stroke-miterlimit:10;" d="M 154 25.679688 C 154 28.992188 151.3125 31.679688 148 31.679688 C 144.6875 31.679688 142 28.992188 142 25.679688 C 142 22.363281 144.6875 19.679688 148 19.679688 C 151.3125 19.679688 154 22.363281 154 25.679688 Z M 154 25.679688 "/>
</g>
</svg>
